<?xml version="1.0" encoding="utf-8"?>
<!-- Generator: Adobe Illustrator 24.0.0, SVG Export Plug-In . SVG Version: 6.00 Build 0)  -->
<svg version="1.1" id="Capa_1" xmlns="http://www.w3.org/2000/svg" xmlns:xlink="http://www.w3.org/1999/xlink" x="0px" y="0px"
	 viewBox="0 0 320.9 118.1" style="enable-background:new 0 0 320.9 118.1;" xml:space="preserve">
<style type="text/css">
	.st0{fill:none;}
</style>
<g id="XMLID_3_">
	<path id="XMLID_4_" class="st0" d="M103,28c-16.8,0-30.4,13.7-30.4,30.4S86.2,88.9,103,88.9s30.4-13.7,30.4-30.4S119.8,28,103,28z"
		/>
	<path id="XMLID_9_" class="st0" d="M183.8,28c-16.8,0-30.4,13.7-30.4,30.4s13.7,30.4,30.4,30.4s30.4-13.7,30.4-30.4
		S200.6,28,183.8,28z"/>
	<path id="XMLID_58_" d="M36,44.5c-6.7,0-12.9,2.6-17.6,7V29.4h35.3c1.5,0,2.8-1.2,2.8-2.8s-1.2-2.8-2.8-2.8H15.6
		c-1.5,0-2.8,1.2-2.8,2.8v33.1c0,1.3,0.9,2.4,2.1,2.7c1.2,0.3,2.5-0.3,3.1-1.4C21.5,54.2,28.4,50,36,50c11.1,0,20.1,9,20.1,20.1
		c0,11.1-9,20.1-20.1,20.1c-8.9,0-16.9-6-19.3-14.6c-0.4-1.5-1.9-2.3-3.4-1.9c-1.5,0.4-2.3,1.9-1.9,3.4c3.1,11,13.3,18.6,24.7,18.6
		c14.1,0,25.6-11.5,25.6-25.6S50.1,44.5,36,44.5z"/>
	<path id="XMLID_61_" d="M103,22.5c-19.8,0-36,16.1-36,36s16.1,36,36,36s36-16.1,36-36S122.9,22.5,103,22.5z M103,88.9
		c-16.8,0-30.4-13.7-30.4-30.4S86.2,28,103,28s30.4,13.7,30.4,30.4S119.8,88.9,103,88.9z"/>
	<path id="XMLID_64_" d="M183.8,22.5c-19.8,0-36,16.1-36,36s16.1,36,36,36s36-16.1,36-36S203.6,22.5,183.8,22.5z M183.8,88.9
		c-16.8,0-30.4-13.7-30.4-30.4S167,28,183.8,28s30.4,13.7,30.4,30.4S200.6,88.9,183.8,88.9z"/>
	<path id="XMLID_65_" d="M247.4,22.4c-10.3,0-18.7,8.4-18.7,18.7v35.5c0,1.5,1.2,2.8,2.8,2.8c1.5,0,2.8-1.2,2.8-2.8V41.1
		c0-7.3,5.9-13.2,13.2-13.2c7.3,0,13.2,5.9,13.2,13.2s-5.9,13.2-13.2,13.2c-0.4,0-0.9,0-1.3-0.1c-1.5-0.1-2.9,1-3,2.5
		c-0.1,1.5,1,2.9,2.5,3c0.6,0.1,1.2,0.1,1.8,0.1c10.3,0,18.7-8.4,18.7-18.7C266.1,30.8,257.7,22.4,247.4,22.4z"/>
	<path id="XMLID_66_" d="M308.9,56.5l-14.8-14.6L308.8,27c1.1-1.1,1.1-2.8,0-3.9c-1.1-1.1-2.8-1.1-3.9,0l-14.6,14.8l-14.9-14.7
		c-1.1-1.1-2.8-1.1-3.9,0c-1.1,1.1-1.1,2.8,0,3.9l14.9,14.7l-14.7,14.9c-1.1,1.1-1.1,2.8,0,3.9c0.5,0.5,1.2,0.8,1.9,0.8
		c0.7,0,1.4-0.3,2-0.8l14.7-14.9L305,60.4c0.5,0.5,1.2,0.8,1.9,0.8c0.7,0,1.4-0.3,2-0.8C310,59.3,310,57.5,308.9,56.5z"/>
</g>
</svg>
