<?xml version="1.0" encoding="utf-8"?>
<!-- Generator: Adobe Illustrator 24.0.0, SVG Export Plug-In . SVG Version: 6.00 Build 0)  -->
<svg version="1.1" id="Guide" xmlns="http://www.w3.org/2000/svg" xmlns:xlink="http://www.w3.org/1999/xlink" x="0px" y="0px"
	 viewBox="0 0 200 200" style="enable-background:new 0 0 200 200;" xml:space="preserve">
<style type="text/css">
	.st0{fill:#F2F2F2;}
</style>
<g>
	<path class="st0" d="M100,2C45.9,2,2,45.9,2,100c0,26,10.3,50.9,28.7,69.3c38.3,38.3,100.3,38.3,138.6,0s38.3-100.3,0-138.6
		C151,12.3,126,1.9,100,2z M165.9,165.9c-36.4,36.4-95.4,36.4-131.8,0s-36.4-95.4,0-131.8l0,0c36.4-36.4,95.4-36.4,131.8,0
		S202.3,129.5,165.9,165.9z"/>
	<path class="st0" d="M100,13.4c-47.8,0-86.6,38.8-86.6,86.6c0,23,9.1,45,25.4,61.2c33.8,33.8,88.6,33.8,122.5,0s33.8-88.6,0-122.5
		C145,22.5,123,13.3,100,13.4L100,13.4z M176.2,70.3L114,72.6H90.1L124.6,22C148.2,29.5,167.2,47.2,176.2,70.3z M113.1,122.7H86.9
		L73.8,100l13.1-22.7h26.2l13.1,22.7L113.1,122.7z M119.7,20.6L83.5,73.7c-0.1,0.1-0.2,0.3-0.3,0.4L71.5,94.5L47.8,37.1
		C67.8,20.4,94.5,14.3,119.7,20.6z M44,40.4l25,60.7c0,0.1,0.1,0.1,0.1,0.2c0,0.1,0.1,0.2,0.1,0.3l12.2,21.1h-60
		C12.9,93.2,21.6,61.4,44,40.4L44,40.4z M22.9,127.4h85.6l-45.7,45.4C44.2,163.3,30,147.1,22.9,127.4L22.9,127.4z M67.4,175
		l48.5-48.2c0.3-0.3,0.6-0.6,0.8-0.9l12-20.7l27.1,54.6C132,182,97.3,188,67.4,175L67.4,175z M159.4,156.2L131,98.8
		c-0.1-0.2-0.1-0.3-0.2-0.4l-12.3-21.2l59.4-2.1C187,103.5,179.9,134.6,159.4,156.2L159.4,156.2z"/>
</g>
</svg>
