<?xml version="1.0" encoding="utf-8"?>
<!-- Generator: Adobe Illustrator 24.0.0, SVG Export Plug-In . SVG Version: 6.00 Build 0)  -->
<svg version="1.1" id="Layer_1" xmlns="http://www.w3.org/2000/svg" xmlns:xlink="http://www.w3.org/1999/xlink" x="0px" y="0px"
	 viewBox="0 0 200 200" style="enable-background:new 0 0 200 200;" xml:space="preserve">
<style type="text/css">
	.st0{fill:#80917F;}
</style>
<g>
	<g>
		<path class="st0" d="M198,97.1l-62-62c-1.6-1.6-4.2-1.6-5.8,0s-1.6,4.2,0,5.8l54.9,54.9H4.9c-2.3,0-4.1,1.8-4.1,4.1
			c0,2.3,1.8,4.1,4.1,4.1h180.2l-54.9,54.9c-1.6,1.6-1.6,4.2,0,5.8c0.8,0.8,1.9,1.2,2.9,1.2c1.1,0,2.1-0.4,2.9-1.2l62-62
			C199.6,101.3,199.6,98.7,198,97.1z"/>
	</g>
</g>
</svg>
