<?xml version="1.0" encoding="utf-8"?>
<!-- Generator: Adobe Illustrator 24.0.0, SVG Export Plug-In . SVG Version: 6.00 Build 0)  -->
<svg version="1.1" id="Capa_1" xmlns="http://www.w3.org/2000/svg" xmlns:xlink="http://www.w3.org/1999/xlink" x="0px" y="0px"
	 viewBox="0 0 200 200" style="enable-background:new 0 0 200 200;" xml:space="preserve">
<style type="text/css">
	.st0{fill:#0F0F0F;}
</style>
<g>
	<path class="st0" d="M70.8,70.8H47.5v23.3h23.3c6.4,0,11.7-5.2,11.7-11.7S77.3,70.8,70.8,70.8z"/>
	<path class="st0" d="M70.8,105.8H47.5v23.3h23.3c6.4,0,11.7-5.2,11.7-11.7S77.3,105.8,70.8,105.8z"/>
	<path class="st0" d="M135,94.2c-7.6,0-14.1,4.9-16.5,11.7h33C149.1,99,142.6,94.2,135,94.2z"/>
	<path class="st0" d="M168.9,2H30.7C14.9,2,2,14.9,2,30.7v138.6C2,185.1,14.9,198,30.7,198h138.2c15.8,0,29.1-12.9,29.1-28.7V30.7
		C198,14.9,184.7,2,168.9,2z M111.5,59.8h45.9v11.5h-45.9V59.8z M94.3,117.2c0,12.7-10.3,23-23,23H36.8V59.8h34.5
		c12.7,0,23,10.3,23,23c0,6.9-3.1,13-7.9,17.2C91.1,104.2,94.3,110.3,94.3,117.2z M163.2,117.2h-45c2.4,6.7,8.8,11.5,16.2,11.5
		c6.1,0,11.8-3.3,14.9-8.6l9.9,5.8c-5.1,8.8-14.6,14.3-24.9,14.3c-15.8,0-28.7-12.9-28.7-28.7s12.9-28.7,28.7-28.7
		s28.7,12.9,28.7,28.7V117.2z"/>
</g>
</svg>
