<?xml version="1.0" encoding="utf-8"?>
<!-- Generator: Adobe Illustrator 24.0.0, SVG Export Plug-In . SVG Version: 6.00 Build 0)  -->
<svg version="1.1" id="Capa_1" xmlns="http://www.w3.org/2000/svg" xmlns:xlink="http://www.w3.org/1999/xlink" x="0px" y="0px"
	 viewBox="0 0 200 200" style="enable-background:new 0 0 200 200;" xml:space="preserve">
<style type="text/css">
	.st0{fill:#F2F2F2;}
</style>
<g>
	<g>
		<g>
			<path class="st0" d="M155.6,65.7c-2.1,0-3.8,1.7-3.8,3.8s1.7,3.8,3.8,3.8c2.1,0,3.8-1.7,3.8-3.8S157.7,65.7,155.6,65.7z"/>
		</g>
	</g>
	<g>
		<g>
			<path class="st0" d="M186.1,50.5h-41.8l-12.1-24.2c-1.9-3.9-5.9-6.3-10.2-6.3H78c-4.4,0-8.3,2.4-10.2,6.3L55.7,50.5h-7.6v-3.8
				c0-6.3-5.1-11.4-11.4-11.4h-7.6c-6.3,0-11.4,5.1-11.4,11.4v3.8h-3.8c-6.3,0-11.4,5.1-11.4,11.4c0,10.4,0,102.6,0,106.7
				c0,6.3,5.1,11.4,11.4,11.4h172.2c6.3,0,11.4-5.1,11.4-11.4c0-10.4,0-102.6,0-106.7C197.5,55.6,192.4,50.5,186.1,50.5z M74.6,29.7
				c0.6-1.3,2-2.1,3.4-2.1H122c1.5,0,2.8,0.8,3.4,2.1l10.4,20.7H64.3L74.6,29.7z M25.3,46.7c0-2.1,1.7-3.8,3.8-3.8h7.6
				c2.1,0,3.8,1.7,3.8,3.8v3.8H25.3V46.7z M10.1,88.5h48.2c-5.1,7.9-7.8,17.2-7.8,26.7c0,9.5,2.7,18.8,7.8,26.7H10.1V88.5z
				 M100,73.3c22.9,0,41.9,18.6,41.9,41.9c0,23.3-19,41.9-41.9,41.9c-23,0-41.9-18.6-41.9-41.9C58.1,91.9,77.1,73.3,100,73.3z
				 M189.9,168.6c0,2.1-1.7,3.8-3.8,3.8H13.9c-2.1,0-3.8-1.7-3.8-3.8v-19h54.2c9.3,9.7,22.2,15.2,35.7,15.2
				c13.5,0,26.4-5.5,35.7-15.2h54.2V168.6z M189.9,141.9h-48.2c5.1-7.9,7.8-17.1,7.8-26.7s-2.7-18.8-7.8-26.7h48.2V141.9z M189.9,81
				h-54.2c-9.3-9.7-22.2-15.2-35.7-15.2c-13.5,0-26.4,5.5-35.7,15.2H10.1v-19c0-2.1,1.7-3.8,3.8-3.8c3.5,0,166.8,0,172.2,0
				c2.1,0,3.8,1.7,3.8,3.8V81z"/>
		</g>
	</g>
	<g>
		<g>
			<path class="st0" d="M111.4,35.2H88.6c-2.1,0-3.8,1.7-3.8,3.8s1.7,3.8,3.8,3.8h22.9c2.1,0,3.8-1.7,3.8-3.8S113.5,35.2,111.4,35.2
				z"/>
		</g>
	</g>
	<g>
		<g>
			<path class="st0" d="M100,81c-18.9,0-34.3,15.4-34.3,34.3s15.4,34.3,34.3,34.3s34.3-15.4,34.3-34.3S118.9,81,100,81z M100,141.9
				c-14.7,0-26.7-12-26.7-26.7s12-26.7,26.7-26.7s26.7,12,26.7,26.7S114.7,141.9,100,141.9z"/>
		</g>
	</g>
	<g>
		<g>
			<path class="st0" d="M100,96.2c-10.5,0-19,8.5-19,19c0,2.1,1.7,3.8,3.8,3.8c2.1,0,3.8-1.7,3.8-3.8c0-6.3,5.1-11.4,11.4-11.4
				c2.1,0,3.8-1.7,3.8-3.8S102.1,96.2,100,96.2z"/>
		</g>
	</g>
	<g>
		<g>
			<path class="st0" d="M178.5,65.7h-7.6c-2.1,0-3.8,1.7-3.8,3.8s1.7,3.8,3.8,3.8h7.6c2.1,0,3.8-1.7,3.8-3.8S180.6,65.7,178.5,65.7z
				"/>
		</g>
	</g>
</g>
</svg>
