<?xml version="1.0" encoding="utf-8"?>
<!-- Generator: Adobe Illustrator 24.0.0, SVG Export Plug-In . SVG Version: 6.00 Build 0)  -->
<svg version="1.1" id="Capa_1" xmlns="http://www.w3.org/2000/svg" xmlns:xlink="http://www.w3.org/1999/xlink" x="0px" y="0px"
	 viewBox="0 0 200 200" style="enable-background:new 0 0 200 200;" xml:space="preserve">
<style type="text/css">
	.st0{fill:#F2F2F2;}
</style>
<g>
	<g>
		<path class="st0" d="M111.4,100.1l83.2-83.2c3.2-3.1,3.3-8.2,0.2-11.4c-3.1-3.2-8.2-3.3-11.4-0.2c-0.1,0.1-0.1,0.1-0.2,0.2
			L99.9,88.6L16.8,5.5c-3.2-3.1-8.3-3-11.4,0.2c-3,3.1-3,8.1,0,11.2l83.2,83.2L5.3,183.2c-3.2,3.2-3.2,8.3,0,11.4
			c3.2,3.2,8.3,3.2,11.4,0l83.2-83.2l83.2,83.2c3.2,3.1,8.3,3,11.4-0.2c3-3.1,3-8.1,0-11.2L111.4,100.1z"/>
	</g>
</g>
</svg>
