<?xml version="1.0" encoding="utf-8"?>
<!-- Generator: Adobe Illustrator 24.0.0, SVG Export Plug-In . SVG Version: 6.00 Build 0)  -->
<svg version="1.1" id="Layer_1" xmlns="http://www.w3.org/2000/svg" xmlns:xlink="http://www.w3.org/1999/xlink" x="0px" y="0px"
	 viewBox="0 0 654 512" style="enable-background:new 0 0 654 512;" xml:space="preserve">
<g>
	<g>
		<g>
			<path d="M521.6,239.8c-4.6-5.7-12.9-6.5-18.5-2l-4.6,3.7c-5.7,4.6-6.5,12.9-2,18.5c2.6,3.2,6.4,4.9,10.3,4.9c2.9,0,5.8-1,8.3-2.9
				l4.6-3.7C525.4,253.7,526.2,245.4,521.6,239.8z"/>
		</g>
	</g>
	<g>
		<g>
			<path d="M483.9,270.3c-4.6-5.7-12.9-6.5-18.5-2l-94.3,75.3c-5.7,4.6-6.5,12.9-2,18.5c2.6,3.2,6.4,4.9,10.3,4.9
				c2.9,0,5.8-1,8.3-2.9l94.3-75.3C487.6,284.3,488.5,276,483.9,270.3z"/>
		</g>
	</g>
	<g>
		<g>
			<path d="M571.4,12.1H82.6C39.2,12.1,4,47.3,4,90.6v330.7c0,43.3,35.2,78.6,78.6,78.6h488.9c43.3,0,78.6-35.2,78.6-78.6V90.6
				C650,47.3,614.8,12.1,571.4,12.1z M533.8,38.5l-207,167.3l-207-167.3H533.8z M544.2,473.5H109.5V165.6l209.1,168.4
				c4.8,3.9,11.7,3.9,16.5,0l209.1-168.4L544.2,473.5L544.2,473.5z M623.6,421.4c0,28.8-23.4,52.2-52.2,52.2h-0.9V138.1
				c0-5.1-2.9-9.7-7.5-11.9c-4.6-2.2-10-1.6-14,1.6l-222.3,179l-222.3-179c-4-3.2-9.4-3.8-14-1.6c-4.6,2.2-7.5,6.8-7.5,11.9v335.5
				h-0.6c-28.8,0-52.2-23.4-52.2-52.2V90.6c0-27.3,21.1-49.7,47.8-52L318.5,233c2.4,2,5.4,2.9,8.3,2.9c2.9,0,5.9-1,8.3-2.9
				L575.5,38.6c26.9,2.1,48.1,24.6,48.1,52V421.4z"/>
		</g>
	</g>
</g>
</svg>
