<?xml version="1.0" encoding="utf-8"?>
<!-- Generator: Adobe Illustrator 24.0.0, SVG Export Plug-In . SVG Version: 6.00 Build 0)  -->
<svg version="1.1" id="Capa_1" xmlns="http://www.w3.org/2000/svg" xmlns:xlink="http://www.w3.org/1999/xlink" x="0px" y="0px"
	 viewBox="0 0 200 200" style="enable-background:new 0 0 200 200;" xml:space="preserve">
<style type="text/css">
	.st0{fill:#0F0F0F;}
</style>
<g>
	<path class="st0" d="M168.4,3.3H31.6C16,3.3,3.3,16,3.3,31.6v136.7c0,15.6,12.7,28.3,28.3,28.3h136.7c15.6,0,28.3-12.7,28.3-28.3
		V31.6C196.7,16,184,3.3,168.4,3.3z M100.4,150.6c-28.1,0-51-22.9-51-51s22.9-51,51-51s51,22.9,51,51S128.5,150.6,100.4,150.6z
		 M157,60c-9.4,0-17-7.6-17-17s7.6-17,17-17s17,7.6,17,17S166.4,60,157,60z"/>
	<path class="st0" d="M157,37.3c-3.1,0-5.7,2.5-5.7,5.7c0,3.1,2.5,5.7,5.7,5.7s5.7-2.5,5.7-5.7C162.7,39.8,160.2,37.3,157,37.3z"/>
	<path class="st0" d="M100.4,60c-21.9,0-39.7,17.8-39.7,39.7s17.8,39.7,39.7,39.7S140,121.5,140,99.6S122.2,60,100.4,60z"/>
</g>
</svg>
