<?xml version="1.0" encoding="utf-8"?>
<!-- Generator: Adobe Illustrator 24.0.0, SVG Export Plug-In . SVG Version: 6.00 Build 0)  -->
<svg version="1.1" id="Capa_1" xmlns="http://www.w3.org/2000/svg" xmlns:xlink="http://www.w3.org/1999/xlink" x="0px" y="0px"
	 viewBox="0 0 200 200" style="enable-background:new 0 0 200 200;" xml:space="preserve">
<style type="text/css">
	.st0{fill:#F2F2F2;}
</style>
<g>
	<path class="st0" d="M174.7,27.4H25.3c-12.2,0-22.2,10-22.2,22.2v100.9c0,12.2,10,22.2,22.2,22.2h149.3c12.2,0,22.2-10,22.2-22.2
		V49.6C196.9,37.3,186.9,27.4,174.7,27.4z M184.7,150.4c0,5.6-4.5,10.1-10.1,10.1H25.3c-5.6,0-10.1-4.5-10.1-10.1V49.6
		c0-5.6,4.5-10.1,10.1-10.1h149.3c5.6,0,10.1,4.5,10.1,10.1V150.4z"/>
	<path class="st0" d="M150.4,67.7h-12.1c-7.8,0-14.1,6.3-14.1,14.1v36.3c0,7.8,6.3,14.1,14.1,14.1h12.1c7.8,0,14.1-6.3,14.1-14.1
		V81.8C164.6,74.1,158.2,67.7,150.4,67.7z M152.5,118.2c0,1.1-0.9,2-2,2h-12.1c-1.1,0-2-0.9-2-2V81.8c0-1.1,0.9-2,2-2h12.1
		c1.1,0,2,0.9,2,2V118.2z"/>
	<path class="st0" d="M47.5,67.7c-3.3,0-6.1,2.7-6.1,6.1v52.5c0,3.3,2.7,6.1,6.1,6.1c3.3,0,6.1-2.7,6.1-6.1V73.8
		C53.6,70.4,50.9,67.7,47.5,67.7z"/>
	<path class="st0" d="M87.9,79.8H102c3.3,0,6.1-2.7,6.1-6.1c0-3.3-2.7-6.1-6.1-6.1H87.9c-11.1,0-20.2,9-20.2,20.2
		c0,10.7,8.3,18.2,20.2,18.2c1.9,0,8.1,0.4,8.1,6.1c0,4.5-3.6,8.1-8.1,8.1H73.8c-3.3,0-6.1,2.7-6.1,6.1c0,3.3,2.7,6.1,6.1,6.1h14.1
		c11.1,0,20.2-9,20.2-20.2c0-10.7-8.3-18.2-20.2-18.2c-1.9,0-8.1-0.4-8.1-6.1C79.8,83.4,83.4,79.8,87.9,79.8z"/>
</g>
</svg>
