<?xml version="1.0" encoding="utf-8"?>
<!-- Generator: Adobe Illustrator 24.0.0, SVG Export Plug-In . SVG Version: 6.00 Build 0)  -->
<svg version="1.1" id="Capa_1" xmlns="http://www.w3.org/2000/svg" xmlns:xlink="http://www.w3.org/1999/xlink" x="0px" y="0px"
	 viewBox="0 0 200 200" style="enable-background:new 0 0 200 200;" xml:space="preserve">
<style type="text/css">
	.st0{fill:#F2F2F2;}
</style>
<g>
	<path class="st0" d="M132.1,116H67.9c-3.5,0-6.4,2.9-6.4,6.4v12.8c0,3.5,2.9,6.4,6.4,6.4h64.2c3.5,0,6.4-2.9,6.4-6.4v-12.8
		C138.5,118.9,135.6,116,132.1,116z M67.9,122.5H94l-8.6,12.8H67.9V122.5z M93.2,135.3l8.6-12.8h5.1l-8.6,12.8H93.2z M106,135.3
		l8.6-12.8h17.5v12.8H106z"/>
	<path class="st0" d="M173.8,119.3h-25.7c-1.8,0-3.2,1.4-3.2,3.2c0,1.8,1.4,3.2,3.2,3.2h25.7c1.8,0,3.2-1.4,3.2-3.2
		C177,120.7,175.6,119.3,173.8,119.3z"/>
	<path class="st0" d="M161,132.1h-12.8c-1.8,0-3.2,1.4-3.2,3.2c0,1.8,1.4,3.2,3.2,3.2H161c1.8,0,3.2-1.4,3.2-3.2
		C164.2,133.5,162.8,132.1,161,132.1z"/>
	<path class="st0" d="M176.1,133c-1.3-1.2-3.3-1.2-4.6,0c-0.3,0.3-0.5,0.7-0.7,1.1c-0.3,0.8-0.3,1.7,0,2.4c0.2,0.4,0.4,0.7,0.7,1.1
		c1.3,1.2,3.3,1.2,4.6,0c0.3-0.3,0.5-0.7,0.7-1.1c0.3-0.8,0.3-1.7,0-2.4C176.6,133.7,176.4,133.3,176.1,133z"/>
	<path class="st0" d="M39,132.1H26.2c-1.8,0-3.2,1.4-3.2,3.2c0,1.8,1.4,3.2,3.2,3.2H39c1.8,0,3.2-1.4,3.2-3.2
		C42.2,133.5,40.8,132.1,39,132.1z"/>
	<path class="st0" d="M54.1,133c-1.3-1.2-3.3-1.2-4.6,0c-0.3,0.3-0.5,0.7-0.7,1.1c-0.3,0.8-0.3,1.7,0,2.4c0.2,0.4,0.4,0.7,0.7,1.1
		c1.3,1.2,3.3,1.2,4.6,0c0.3-0.3,0.5-0.7,0.7-1.1c0.3-0.8,0.3-1.7,0-2.4C54.6,133.7,54.4,133.3,54.1,133z"/>
	<path class="st0" d="M196.3,28.5c0-1.9-1.1-3.6-2.8-4.4c-1.7-0.8-3.7-0.5-5.2,0.8l-10.7,9.4l-14.7-20.9c-4.2-6-11.1-9.6-18.4-9.6
		H55.5c-7.3,0-14.2,3.6-18.4,9.6L22.4,34.2l-10.7-9.4c-1.4-1.2-3.4-1.5-5.2-0.8c-1.7,0.8-2.8,2.5-2.8,4.4v31.7
		c0,1.7,0.7,3.3,1.9,4.5L9.9,69c-1.8,1.2-2.9,3.2-2.9,5.4V100c0,2.3,1.2,4.4,3.2,5.5v45.8c0,3.5,2.9,6.4,6.4,6.4h3.2V177
		c0,3.5,2.9,6.4,6.4,6.4h25.7v6.4c0,3.5,2.9,6.4,6.4,6.4h83.4c3.5,0,6.4-2.9,6.4-6.4v-6.4h25.7c3.5,0,6.4-2.9,6.4-6.4v-19.3h3.2
		c3.5,0,6.4-2.9,6.4-6.4v-45.8c2-1.1,3.2-3.2,3.2-5.5V74.3c0-2.2-1.1-4.2-2.9-5.4l4.3-4.3c1.2-1.2,1.9-2.8,1.9-4.5V28.5z M18.2,39.1
		c1.4,1.2,3.2,1.8,5,1.6c1.8-0.2,3.4-1.2,4.5-2.7L42.3,17c3-4.3,7.9-6.8,13.1-6.9h89.1c5.2,0,10.2,2.6,13.2,6.8l14.7,20.9
		c1,1.5,2.7,2.5,4.5,2.7c1.8,0.2,3.6-0.4,5-1.5l8-7v19.8H10.1V32L18.2,39.1z M189.9,60.2l-7.8,7.7H17.9l-7.7-7.7v-1.9h179.7V60.2z
		 M186.7,100h-6.4V74.3h6.4V100z M167.4,100V74.3h6.4V100H167.4z M154.6,100V74.3h6.4V100H154.6z M141.7,100V74.3h6.4V100H141.7z
		 M128.9,100V74.3h6.4V100H128.9z M116,100V74.3h6.4V100H116z M103.2,100V74.3h6.4V100H103.2z M90.4,100V74.3h6.4V100H90.4z
		 M77.5,100V74.3H84V100H77.5z M64.7,100V74.3h6.4V100H64.7z M51.9,100V74.3h6.4V100H51.9z M39,100V74.3h6.4V100H39z M26.2,100V74.3
		h6.4V100H26.2z M13.3,100V74.3h6.4V100H13.3z M26.2,157.8h6.4V177h-6.4V157.8z M45.4,157.8V177H39v-19.3H45.4z M58.3,157.8V177
		h-6.4v-19.3H58.3z M71.1,157.8V177h-6.4v-19.3H71.1z M84,157.8V177h-6.4v-19.3H84z M96.8,157.8V177h-6.4v-19.3H96.8z M109.6,157.8
		V177h-6.4v-19.3H109.6z M122.5,157.8V177H116v-19.3H122.5z M135.3,157.8V177h-6.4v-19.3H135.3z M148.1,157.8V177h-6.4v-19.3H148.1z
		 M161,157.8V177h-6.4v-19.3H161z M141.7,189.9H58.3v-6.4h83.4V189.9z M173.8,177h-6.4v-19.3h6.4V177z M183.4,151.4H16.6v-44.9
		h166.9V151.4z"/>
</g>
</svg>
