<?xml version="1.0" encoding="utf-8"?>
<!-- Generator: Adobe Illustrator 24.0.0, SVG Export Plug-In . SVG Version: 6.00 Build 0)  -->
<svg version="1.1" id="Capa_1" xmlns="http://www.w3.org/2000/svg" xmlns:xlink="http://www.w3.org/1999/xlink" x="0px" y="0px"
	 viewBox="0 0 200 200" style="enable-background:new 0 0 200 200;" xml:space="preserve">
<style type="text/css">
	.st0{fill:#F2F2F2;}
</style>
<g>
	<path class="st0" d="M166.6,114l28.3-31.8c2.4-2.7,3.6-6.2,3.3-9.8c-0.3-3.6-2.1-6.9-4.9-9.1c-5.7-4.3-13.7-3.5-18.3,1.9l-21.4,24
		L121.8,61c-2.7-2.4-6.8-2.2-9.2,0.5L10.6,176c-4.8,5.2-4.8,13.3,0.2,18.4c2.4,2.4,5.7,3.8,9.2,3.8h0.4c3.6-0.1,7-1.7,9.4-4.4
		l89.2-100.2l24.4,21.8C150.3,121.3,160.6,120.7,166.6,114z M147.9,110.5l-24.4-21.8c-1.3-1.1-3-1.7-4.7-1.6
		c-1.7,0.1-3.4,0.9-4.5,2.2L24.9,189.4c-1.2,1.3-2.9,2.1-4.7,2.2c-1.8,0-3.5-0.7-4.8-1.9c-2.4-2.7-2.4-6.8,0.1-9.4L117.5,65.9
		l31.8,28.3c2.7,2.4,6.8,2.2,9.2-0.5l21.4-24c2.3-2.8,6.4-3.3,9.3-1.2c1.4,1.1,2.3,2.8,2.4,4.6c0.2,1.8-0.4,3.6-1.6,4.9l-28.3,31.8
		C158.1,113.7,151.9,114.1,147.9,110.5z"/>
	<path class="st0" d="M67.7,47.9l22,19.6c2.7,2.4,6.8,2.2,9.2-0.5l8.7-9.8c2.4-2.7,2.2-6.8-0.5-9.2L77.8,21.8
		c-6.7-6-17.1-5.4-23.1,1.3L26.4,54.9c-2.4,2.7-3.6,6.2-3.3,9.8c0.3,3.6,2.1,6.9,4.9,9.1c2.3,1.8,5.1,2.8,8,2.8
		c4,0,7.7-1.7,10.3-4.7L67.7,47.9z M32.1,68.7c-1.4-1.1-2.3-2.8-2.4-4.6c-0.2-1.8,0.4-3.6,1.6-4.9l28.3-31.8c1.7-2,4.2-3.1,6.8-3.3
		c0.2,0,0.4,0,0.6,0c2.4,0,4.7,0.9,6.5,2.5l29.3,26.1l-8.7,9.8L72.1,43c-2.7-2.4-6.8-2.2-9.2,0.5l-21.4,24
		C39.1,70.3,35.1,70.8,32.1,68.7z"/>
	<path class="st0" d="M103,194.4c2.4,2.4,5.8,3.8,9.2,3.8h0.4c3.6-0.1,7-1.7,9.4-4.4l28.3-31.8c6-6.8,5.4-17.1-1.3-23.1l-29.3-26.1
		c-1.3-1.1-3-1.7-4.7-1.6c-1.7,0.1-3.4,0.9-4.5,2.2l-8.7,9.8c-2.4,2.7-2.2,6.8,0.5,9.2l22,19.6l-21.4,24
		C98,181.2,98.1,189.3,103,194.4z M107.7,180.3l21.4-24c2.4-2.7,2.2-6.8-0.5-9.2l-22-19.6l8.7-9.8l29.3,26.1c4,3.6,4.4,9.8,0.8,13.9
		l-28.3,31.8c-1.2,1.3-2.9,2.1-4.7,2.2c-1.8,0.1-3.6-0.6-4.8-1.9C105.2,187.1,105.3,183,107.7,180.3L107.7,180.3z"/>
	<path class="st0" d="M126.3,53.3c5.4,4.8,12.3,7.5,19.5,7.5c0.6,0,1.2,0,1.7-0.1c14-0.8,25.5-11.4,27.5-25.3
		c1.9-13.9-6.2-27.3-19.5-31.9c-13.3-4.6-28,0.8-35.1,12.9C113.3,28.5,115.8,43.9,126.3,53.3L126.3,53.3z M128.7,16
		c8.4-9.4,22.9-10.3,32.3-1.9s10.3,22.9,1.9,32.3c-8.4,9.4-22.9,10.3-32.3,1.9c-4.5-4-7.3-9.7-7.7-15.8
		C122.6,26.5,124.7,20.6,128.7,16z"/>
	<path class="st0" d="M1.9,90.2c0,1.8,1.5,3.3,3.3,3.3h26.2c1.8,0,3.3-1.5,3.3-3.3c0-1.8-1.5-3.3-3.3-3.3H5.1
		C3.3,86.9,1.9,88.4,1.9,90.2z"/>
	<path class="st0" d="M14.9,103.3c0,1.8,1.5,3.3,3.3,3.3h26.2c1.8,0,3.3-1.5,3.3-3.3c0-1.8-1.5-3.3-3.3-3.3H18.2
		C16.4,100,14.9,101.5,14.9,103.3z"/>
</g>
</svg>
