<?xml version="1.0" encoding="utf-8"?>
<!-- Generator: Adobe Illustrator 24.0.0, SVG Export Plug-In . SVG Version: 6.00 Build 0)  -->
<svg version="1.1" id="Capa_1" xmlns="http://www.w3.org/2000/svg" xmlns:xlink="http://www.w3.org/1999/xlink" x="0px" y="0px"
	 viewBox="0 0 200 200" style="enable-background:new 0 0 200 200;" xml:space="preserve">
<style type="text/css">
	.st0{fill:#0F0F0F;}
</style>
<g>
	<g>
		<path class="st0" d="M100,1.6L100,1.6C45.7,1.6,1.6,45.8,1.6,100c0,21.5,6.9,41.5,18.7,57.7L8.1,194.2l37.8-12.1
			c15.6,10.3,34.1,16.3,54.1,16.3c54.2,0,98.3-44.1,98.3-98.4S154.3,1.6,100,1.6z M157.3,140.5c-2.4,6.7-11.8,12.3-19.3,13.9
			c-5.1,1.1-11.9,2-34.5-7.4c-28.9-12-47.5-41.3-49-43.3c-1.4-1.9-11.7-15.6-11.7-29.7s7.2-21,10.1-23.9c2.4-2.4,6.3-3.5,10.1-3.5
			c1.2,0,2.3,0.1,3.3,0.1c2.9,0.1,4.3,0.3,6.2,4.9c2.4,5.7,8.2,19.8,8.8,21.3c0.7,1.5,1.4,3.4,0.4,5.3c-0.9,2-1.7,2.8-3.2,4.5
			c-1.5,1.7-2.8,3-4.3,4.7c-1.3,1.6-2.8,3.2-1.2,6.1c1.7,2.8,7.5,12.3,16,19.8c11,9.8,19.9,12.9,23.1,14.2c2.4,1,5.2,0.8,6.9-1.1
			c2.2-2.4,4.9-6.3,7.7-10.2c2-2.8,4.5-3.1,7.1-2.1c2.7,0.9,16.7,7.9,19.6,9.3c2.9,1.5,4.8,2.1,5.5,3.4
			C159.6,128.1,159.6,133.8,157.3,140.5z"/>
	</g>
</g>
</svg>
