<?xml version="1.0" encoding="utf-8"?>
<!-- Generator: Adobe Illustrator 24.0.0, SVG Export Plug-In . SVG Version: 6.00 Build 0)  -->
<svg version="1.1" id="Capa_1" xmlns="http://www.w3.org/2000/svg" xmlns:xlink="http://www.w3.org/1999/xlink" x="0px" y="0px"
	 viewBox="0 0 268.2 200" style="enable-background:new 0 0 268.2 200;" xml:space="preserve">
<style type="text/css">
	.st0{fill:#0F0F0F;}
</style>
<g>
	<g>
		<path class="st0" d="M254.5,27c-7.1-12.8-14.9-15-30.6-16c-15.7-1.1-55.3-1.5-89.7-1.5s-74,0.4-89.8,1.5
			c-15.7,0.9-23.5,3.2-30.7,16C6.3,39.7,2.5,61.5,2.5,100l0,0l0,0l0,0c0,38.3,3.8,60.3,11.1,72.9c7.2,12.8,14.9,15,30.7,16.1
			c15.7,0.9,55.4,1.5,89.8,1.5s74-0.5,89.7-1.5c15.7-1.1,23.5-3.4,30.6-16.1c7.4-12.5,11.1-34.5,11.1-72.9c0,0,0,0,0-0.1l0,0
			C265.7,61.5,261.9,39.7,254.5,27z M101.2,149.4V50.7l82.3,49.4L101.2,149.4z"/>
	</g>
</g>
</svg>
